<mxfile host="app.diagrams.net" modified="2023-11-05T14:28:59.051Z" agent="Mozilla/5.0 (Macintosh; Intel Mac OS X 10_15_7) AppleWebKit/537.36 (KHTML, like Gecko) Chrome/119.0.0.0 Safari/537.36" etag="lsoEs8U5rmFD6MgTVrGJ" version="22.0.8" type="github">
  <diagram id="C5RBs43oDa-KdzZeNtuy" name="Page-1">
    <mxGraphModel dx="2295" dy="763" grid="1" gridSize="10" guides="1" tooltips="1" connect="1" arrows="1" fold="1" page="1" pageScale="1" pageWidth="827" pageHeight="1169" math="0" shadow="0">
      <root>
        <mxCell id="WIyWlLk6GJQsqaUBKTNV-0" />
        <mxCell id="WIyWlLk6GJQsqaUBKTNV-1" parent="WIyWlLk6GJQsqaUBKTNV-0" />
        <mxCell id="0I1Mv4H7z2DD0T4DFrJM-30" style="edgeStyle=orthogonalEdgeStyle;rounded=0;orthogonalLoop=1;jettySize=auto;html=1;exitX=0.5;exitY=1;exitDx=0;exitDy=0;entryX=0.5;entryY=0;entryDx=0;entryDy=0;" edge="1" parent="WIyWlLk6GJQsqaUBKTNV-1" source="0I1Mv4H7z2DD0T4DFrJM-0" target="0I1Mv4H7z2DD0T4DFrJM-11">
          <mxGeometry relative="1" as="geometry" />
        </mxCell>
        <mxCell id="0I1Mv4H7z2DD0T4DFrJM-0" value="" style="ellipse;whiteSpace=wrap;html=1;aspect=fixed;fillColor=#000000;" vertex="1" parent="WIyWlLk6GJQsqaUBKTNV-1">
          <mxGeometry x="350" y="10" width="20" height="20" as="geometry" />
        </mxCell>
        <mxCell id="0I1Mv4H7z2DD0T4DFrJM-21" style="edgeStyle=orthogonalEdgeStyle;rounded=0;orthogonalLoop=1;jettySize=auto;html=1;exitX=0;exitY=0.5;exitDx=0;exitDy=0;" edge="1" parent="WIyWlLk6GJQsqaUBKTNV-1" source="0I1Mv4H7z2DD0T4DFrJM-3" target="0I1Mv4H7z2DD0T4DFrJM-13">
          <mxGeometry relative="1" as="geometry" />
        </mxCell>
        <mxCell id="0I1Mv4H7z2DD0T4DFrJM-3" value="Add Blog Post" style="rounded=0;whiteSpace=wrap;html=1;" vertex="1" parent="WIyWlLk6GJQsqaUBKTNV-1">
          <mxGeometry x="20" y="260" width="120" height="60" as="geometry" />
        </mxCell>
        <mxCell id="0I1Mv4H7z2DD0T4DFrJM-23" style="edgeStyle=orthogonalEdgeStyle;rounded=0;orthogonalLoop=1;jettySize=auto;html=1;exitX=0.5;exitY=1;exitDx=0;exitDy=0;entryX=0.5;entryY=0;entryDx=0;entryDy=0;" edge="1" parent="WIyWlLk6GJQsqaUBKTNV-1" source="0I1Mv4H7z2DD0T4DFrJM-4" target="0I1Mv4H7z2DD0T4DFrJM-17">
          <mxGeometry relative="1" as="geometry" />
        </mxCell>
        <mxCell id="0I1Mv4H7z2DD0T4DFrJM-4" value="Search Blog Post" style="rounded=0;whiteSpace=wrap;html=1;" vertex="1" parent="WIyWlLk6GJQsqaUBKTNV-1">
          <mxGeometry x="160" y="260" width="120" height="60" as="geometry" />
        </mxCell>
        <mxCell id="0I1Mv4H7z2DD0T4DFrJM-5" value="Edit Blog Post" style="rounded=0;whiteSpace=wrap;html=1;" vertex="1" parent="WIyWlLk6GJQsqaUBKTNV-1">
          <mxGeometry x="300" y="260" width="120" height="60" as="geometry" />
        </mxCell>
        <mxCell id="0I1Mv4H7z2DD0T4DFrJM-6" value="Remove Blog Post" style="rounded=0;whiteSpace=wrap;html=1;" vertex="1" parent="WIyWlLk6GJQsqaUBKTNV-1">
          <mxGeometry x="580" y="260" width="120" height="60" as="geometry" />
        </mxCell>
        <mxCell id="0I1Mv4H7z2DD0T4DFrJM-7" value="Print All Blog Posts" style="rounded=0;whiteSpace=wrap;html=1;" vertex="1" parent="WIyWlLk6GJQsqaUBKTNV-1">
          <mxGeometry x="440" y="260" width="120" height="60" as="geometry" />
        </mxCell>
        <mxCell id="0I1Mv4H7z2DD0T4DFrJM-32" style="edgeStyle=orthogonalEdgeStyle;rounded=0;orthogonalLoop=1;jettySize=auto;html=1;exitX=0;exitY=0.5;exitDx=0;exitDy=0;entryX=0.5;entryY=0;entryDx=0;entryDy=0;" edge="1" parent="WIyWlLk6GJQsqaUBKTNV-1" source="0I1Mv4H7z2DD0T4DFrJM-10" target="0I1Mv4H7z2DD0T4DFrJM-3">
          <mxGeometry relative="1" as="geometry" />
        </mxCell>
        <mxCell id="0I1Mv4H7z2DD0T4DFrJM-33" style="edgeStyle=orthogonalEdgeStyle;rounded=0;orthogonalLoop=1;jettySize=auto;html=1;exitX=0.25;exitY=1;exitDx=0;exitDy=0;entryX=0.5;entryY=0;entryDx=0;entryDy=0;" edge="1" parent="WIyWlLk6GJQsqaUBKTNV-1" source="0I1Mv4H7z2DD0T4DFrJM-10" target="0I1Mv4H7z2DD0T4DFrJM-4">
          <mxGeometry relative="1" as="geometry" />
        </mxCell>
        <mxCell id="0I1Mv4H7z2DD0T4DFrJM-34" style="edgeStyle=orthogonalEdgeStyle;rounded=0;orthogonalLoop=1;jettySize=auto;html=1;exitX=0.5;exitY=1;exitDx=0;exitDy=0;entryX=0.5;entryY=0;entryDx=0;entryDy=0;" edge="1" parent="WIyWlLk6GJQsqaUBKTNV-1" source="0I1Mv4H7z2DD0T4DFrJM-10" target="0I1Mv4H7z2DD0T4DFrJM-5">
          <mxGeometry relative="1" as="geometry" />
        </mxCell>
        <mxCell id="0I1Mv4H7z2DD0T4DFrJM-35" style="edgeStyle=orthogonalEdgeStyle;rounded=0;orthogonalLoop=1;jettySize=auto;html=1;exitX=0.75;exitY=1;exitDx=0;exitDy=0;entryX=0.5;entryY=0;entryDx=0;entryDy=0;" edge="1" parent="WIyWlLk6GJQsqaUBKTNV-1" source="0I1Mv4H7z2DD0T4DFrJM-10" target="0I1Mv4H7z2DD0T4DFrJM-7">
          <mxGeometry relative="1" as="geometry" />
        </mxCell>
        <mxCell id="0I1Mv4H7z2DD0T4DFrJM-36" style="edgeStyle=orthogonalEdgeStyle;rounded=0;orthogonalLoop=1;jettySize=auto;html=1;exitX=1;exitY=0.5;exitDx=0;exitDy=0;entryX=0.5;entryY=0;entryDx=0;entryDy=0;" edge="1" parent="WIyWlLk6GJQsqaUBKTNV-1" source="0I1Mv4H7z2DD0T4DFrJM-10" target="0I1Mv4H7z2DD0T4DFrJM-6">
          <mxGeometry relative="1" as="geometry" />
        </mxCell>
        <mxCell id="0I1Mv4H7z2DD0T4DFrJM-10" value="Print Menu" style="rounded=0;whiteSpace=wrap;html=1;" vertex="1" parent="WIyWlLk6GJQsqaUBKTNV-1">
          <mxGeometry x="300" y="150" width="120" height="60" as="geometry" />
        </mxCell>
        <mxCell id="0I1Mv4H7z2DD0T4DFrJM-31" style="edgeStyle=orthogonalEdgeStyle;rounded=0;orthogonalLoop=1;jettySize=auto;html=1;exitX=0.5;exitY=1;exitDx=0;exitDy=0;entryX=0.5;entryY=0;entryDx=0;entryDy=0;" edge="1" parent="WIyWlLk6GJQsqaUBKTNV-1" source="0I1Mv4H7z2DD0T4DFrJM-11" target="0I1Mv4H7z2DD0T4DFrJM-10">
          <mxGeometry relative="1" as="geometry" />
        </mxCell>
        <mxCell id="0I1Mv4H7z2DD0T4DFrJM-11" value="Initiate Blog List" style="rounded=0;whiteSpace=wrap;html=1;" vertex="1" parent="WIyWlLk6GJQsqaUBKTNV-1">
          <mxGeometry x="300" y="60" width="120" height="60" as="geometry" />
        </mxCell>
        <mxCell id="0I1Mv4H7z2DD0T4DFrJM-12" value="Add Title and Body" style="rounded=0;whiteSpace=wrap;html=1;" vertex="1" parent="WIyWlLk6GJQsqaUBKTNV-1">
          <mxGeometry x="20" y="350" width="120" height="60" as="geometry" />
        </mxCell>
        <mxCell id="0I1Mv4H7z2DD0T4DFrJM-13" value="Add Date" style="rounded=0;whiteSpace=wrap;html=1;" vertex="1" parent="WIyWlLk6GJQsqaUBKTNV-1">
          <mxGeometry x="-120" y="350" width="120" height="60" as="geometry" />
        </mxCell>
        <mxCell id="0I1Mv4H7z2DD0T4DFrJM-26" style="edgeStyle=orthogonalEdgeStyle;rounded=0;orthogonalLoop=1;jettySize=auto;html=1;exitX=0.5;exitY=1;exitDx=0;exitDy=0;entryX=0.5;entryY=0;entryDx=0;entryDy=0;" edge="1" parent="WIyWlLk6GJQsqaUBKTNV-1" source="0I1Mv4H7z2DD0T4DFrJM-14" target="0I1Mv4H7z2DD0T4DFrJM-39">
          <mxGeometry relative="1" as="geometry" />
        </mxCell>
        <mxCell id="0I1Mv4H7z2DD0T4DFrJM-14" value="Binary Search by title / date" style="rounded=0;whiteSpace=wrap;html=1;" vertex="1" parent="WIyWlLk6GJQsqaUBKTNV-1">
          <mxGeometry x="160" y="500" width="120" height="60" as="geometry" />
        </mxCell>
        <mxCell id="0I1Mv4H7z2DD0T4DFrJM-27" style="edgeStyle=orthogonalEdgeStyle;rounded=0;orthogonalLoop=1;jettySize=auto;html=1;exitX=0.5;exitY=1;exitDx=0;exitDy=0;entryX=0.5;entryY=0;entryDx=0;entryDy=0;" edge="1" parent="WIyWlLk6GJQsqaUBKTNV-1" source="0I1Mv4H7z2DD0T4DFrJM-16" target="0I1Mv4H7z2DD0T4DFrJM-39">
          <mxGeometry relative="1" as="geometry">
            <mxPoint x="290" y="600" as="targetPoint" />
          </mxGeometry>
        </mxCell>
        <mxCell id="0I1Mv4H7z2DD0T4DFrJM-16" value="Linear Search by Keyword" style="rounded=0;whiteSpace=wrap;html=1;" vertex="1" parent="WIyWlLk6GJQsqaUBKTNV-1">
          <mxGeometry x="300" y="500" width="120" height="60" as="geometry" />
        </mxCell>
        <mxCell id="0I1Mv4H7z2DD0T4DFrJM-24" style="edgeStyle=orthogonalEdgeStyle;rounded=0;orthogonalLoop=1;jettySize=auto;html=1;exitX=0.5;exitY=1;exitDx=0;exitDy=0;entryX=0.5;entryY=0;entryDx=0;entryDy=0;" edge="1" parent="WIyWlLk6GJQsqaUBKTNV-1" source="0I1Mv4H7z2DD0T4DFrJM-17" target="0I1Mv4H7z2DD0T4DFrJM-14">
          <mxGeometry relative="1" as="geometry" />
        </mxCell>
        <mxCell id="0I1Mv4H7z2DD0T4DFrJM-25" style="edgeStyle=orthogonalEdgeStyle;rounded=0;orthogonalLoop=1;jettySize=auto;html=1;exitX=0.5;exitY=1;exitDx=0;exitDy=0;" edge="1" parent="WIyWlLk6GJQsqaUBKTNV-1" source="0I1Mv4H7z2DD0T4DFrJM-4" target="0I1Mv4H7z2DD0T4DFrJM-16">
          <mxGeometry relative="1" as="geometry">
            <Array as="points">
              <mxPoint x="220" y="380" />
              <mxPoint x="320" y="380" />
            </Array>
          </mxGeometry>
        </mxCell>
        <mxCell id="0I1Mv4H7z2DD0T4DFrJM-17" value="Bubble Sort" style="rounded=0;whiteSpace=wrap;html=1;" vertex="1" parent="WIyWlLk6GJQsqaUBKTNV-1">
          <mxGeometry x="160" y="410" width="120" height="60" as="geometry" />
        </mxCell>
        <mxCell id="0I1Mv4H7z2DD0T4DFrJM-29" style="edgeStyle=orthogonalEdgeStyle;rounded=0;orthogonalLoop=1;jettySize=auto;html=1;exitX=0.5;exitY=1;exitDx=0;exitDy=0;entryX=0.5;entryY=0;entryDx=0;entryDy=0;" edge="1" parent="WIyWlLk6GJQsqaUBKTNV-1" source="0I1Mv4H7z2DD0T4DFrJM-18" target="0I1Mv4H7z2DD0T4DFrJM-28">
          <mxGeometry relative="1" as="geometry" />
        </mxCell>
        <mxCell id="0I1Mv4H7z2DD0T4DFrJM-18" value="Print result as index" style="rounded=0;whiteSpace=wrap;html=1;" vertex="1" parent="WIyWlLk6GJQsqaUBKTNV-1">
          <mxGeometry x="120" y="670" width="120" height="60" as="geometry" />
        </mxCell>
        <mxCell id="0I1Mv4H7z2DD0T4DFrJM-19" value="" style="endArrow=classic;html=1;rounded=0;exitX=0.5;exitY=1;exitDx=0;exitDy=0;entryX=0.5;entryY=0;entryDx=0;entryDy=0;" edge="1" parent="WIyWlLk6GJQsqaUBKTNV-1" source="0I1Mv4H7z2DD0T4DFrJM-3" target="0I1Mv4H7z2DD0T4DFrJM-12">
          <mxGeometry width="50" height="50" relative="1" as="geometry">
            <mxPoint x="520" y="410" as="sourcePoint" />
            <mxPoint x="570" y="360" as="targetPoint" />
          </mxGeometry>
        </mxCell>
        <mxCell id="0I1Mv4H7z2DD0T4DFrJM-28" value="Print Blog Post" style="rounded=0;whiteSpace=wrap;html=1;" vertex="1" parent="WIyWlLk6GJQsqaUBKTNV-1">
          <mxGeometry x="120" y="750" width="120" height="60" as="geometry" />
        </mxCell>
        <mxCell id="0I1Mv4H7z2DD0T4DFrJM-38" value="Select Blog post to edit" style="rounded=0;whiteSpace=wrap;html=1;" vertex="1" parent="WIyWlLk6GJQsqaUBKTNV-1">
          <mxGeometry x="610" y="400" width="120" height="60" as="geometry" />
        </mxCell>
        <mxCell id="0I1Mv4H7z2DD0T4DFrJM-40" style="edgeStyle=orthogonalEdgeStyle;rounded=0;orthogonalLoop=1;jettySize=auto;html=1;exitX=0;exitY=0.5;exitDx=0;exitDy=0;entryX=0.5;entryY=0;entryDx=0;entryDy=0;" edge="1" parent="WIyWlLk6GJQsqaUBKTNV-1" source="0I1Mv4H7z2DD0T4DFrJM-39" target="0I1Mv4H7z2DD0T4DFrJM-18">
          <mxGeometry relative="1" as="geometry" />
        </mxCell>
        <mxCell id="0I1Mv4H7z2DD0T4DFrJM-41" value="True" style="edgeLabel;html=1;align=center;verticalAlign=middle;resizable=0;points=[];" vertex="1" connectable="0" parent="0I1Mv4H7z2DD0T4DFrJM-40">
          <mxGeometry x="-0.3238" y="-7" relative="1" as="geometry">
            <mxPoint as="offset" />
          </mxGeometry>
        </mxCell>
        <mxCell id="0I1Mv4H7z2DD0T4DFrJM-43" style="edgeStyle=orthogonalEdgeStyle;rounded=0;orthogonalLoop=1;jettySize=auto;html=1;exitX=1;exitY=0.5;exitDx=0;exitDy=0;entryX=0.5;entryY=0;entryDx=0;entryDy=0;" edge="1" parent="WIyWlLk6GJQsqaUBKTNV-1" source="0I1Mv4H7z2DD0T4DFrJM-39" target="0I1Mv4H7z2DD0T4DFrJM-42">
          <mxGeometry relative="1" as="geometry" />
        </mxCell>
        <mxCell id="0I1Mv4H7z2DD0T4DFrJM-39" value="Post exists" style="rhombus;whiteSpace=wrap;html=1;" vertex="1" parent="WIyWlLk6GJQsqaUBKTNV-1">
          <mxGeometry x="250" y="610" width="80" height="80" as="geometry" />
        </mxCell>
        <mxCell id="0I1Mv4H7z2DD0T4DFrJM-42" value="Handle Error" style="rounded=0;whiteSpace=wrap;html=1;" vertex="1" parent="WIyWlLk6GJQsqaUBKTNV-1">
          <mxGeometry x="340" y="670" width="120" height="60" as="geometry" />
        </mxCell>
        <mxCell id="0I1Mv4H7z2DD0T4DFrJM-44" value="Exit Program" style="strokeWidth=2;html=1;shape=mxgraph.flowchart.terminator;whiteSpace=wrap;" vertex="1" parent="WIyWlLk6GJQsqaUBKTNV-1">
          <mxGeometry x="727" y="260" width="100" height="60" as="geometry" />
        </mxCell>
        <mxCell id="0I1Mv4H7z2DD0T4DFrJM-45" style="edgeStyle=orthogonalEdgeStyle;rounded=0;orthogonalLoop=1;jettySize=auto;html=1;exitX=1;exitY=0.5;exitDx=0;exitDy=0;entryX=0.5;entryY=0;entryDx=0;entryDy=0;entryPerimeter=0;" edge="1" parent="WIyWlLk6GJQsqaUBKTNV-1" source="0I1Mv4H7z2DD0T4DFrJM-10" target="0I1Mv4H7z2DD0T4DFrJM-44">
          <mxGeometry relative="1" as="geometry">
            <mxPoint x="780" y="260" as="sourcePoint" />
          </mxGeometry>
        </mxCell>
      </root>
    </mxGraphModel>
  </diagram>
</mxfile>
